<?xml version="1.0" encoding="UTF-8"?>
<svg id="Layer_1" xmlns="http://www.w3.org/2000/svg" viewBox="0 0 1178.03 1178.03">
  <defs>
    <style>
      .cls-1 {
        fill: #d0d2d3;
      }

      .cls-2 {
        stroke: #000;
        stroke-width: 4px;
      }

      .cls-2, .cls-3 {
        fill: #fff;
        stroke-miterlimit: 10;
      }

      .cls-4 {
        fill: #f1f1f2;
        font-family: Helvetica-Bold, Helvetica;
        font-size: 160.81px;
      }

      .cls-4, .cls-5 {
        font-weight: 700;
      }

      .cls-3 {
        stroke: #a6a8ab;
      }

      .cls-6 {
        fill: #1d1d1d;
      }

      .cls-5 {
        fill: #ec1c24;
        font-family: BerlinSansFBDemi-Bold, 'Berlin Sans FB Demi';
        font-size: 241.21px;
      }
    </style>
  </defs>
  <circle class="cls-3" cx="589.02" cy="589.02" r="588.52"/>
  <g>
    <path class="cls-2" d="M593.32,221.27c-2.67.45-19.01.59-21.6.24-.89-.95-.54-2.15-.52-3.24.11-6.07.26-12.15.41-18.22.31-12.38.61-24.75.94-37.13.21-7.7,1.21-15.3,3.31-22.73.53-1.87,1.15-3.72,1.88-5.52,1.58-3.91,4.07-7.19,7.52-9.63,2.15-1.52,4.38-2.93,6.66-4.24,7.67-4.4,15.71-8.03,23.82-11.5,26.65-11.41,53.56-22.17,80.46-32.96,9.36-3.75,18.74-7.45,28.11-11.16,1.06-.42,2.14-.8,3.14-1.18,2.48.63,4.6,1.7,6.52,3.22,4.73,3.74,5.35,8.99,3.71,13.94-.19.57-.8,1.1-1.34,1.42-.88.51-1.88.84-2.83,1.24-34.97,14.67-69.94,29.33-104.9,44.04-5.7,2.4-11.32,4.99-16.98,7.5-2.95,1.31-5.69,2.97-8.27,4.89-3.31,2.47-5.66,5.64-6.91,9.6-1.04,3.29-1.78,6.62-1.84,10.1-.28,16.05-.61,32.09-.93,48.14-.09,4.35-.23,8.69-.36,13.21Z"/>
    <g>
      <polygon class="cls-1" points="363.58 1029.96 812 1029.96 768.47 1104 403.62 1104 363.58 1029.96"/>
      <polygon class="cls-6" points="402.54 262.66 775.85 262.66 814.43 328.38 364.58 328.38 402.54 262.66"/>
      <rect class="cls-6" x="363.58" y="345.42" width="450.85" height="666.6"/>
      <rect class="cls-1" x="751.98" y="335.42" width="16.49" height="686.61"/>
      <rect class="cls-1" x="408.25" y="226.79" width="363.26" height="24.58"/>
      <path d="M833.88,334.67c-1.03-2.94-2.36-5.79-3.67-8.62-.36-.77-1.18-1.32-1.61-2.07-13.7-23.57-27.39-47.15-41.02-70.77-.53-.92-.56-2.23-.53-3.35.11-5.52.98-11.11.34-16.53-1.32-11.25-10.44-18.52-22.35-18.53h-144.66c-.61,1.26-1.88,1.69-4.25,1.7-18.51.03-37.01.02-55.52,0-2.45,0-3.74-.41-4.37-1.69h-138.56c-1.78,0-3.56,0-5.34.01-11.43.04-20.46,7.4-21.79,18.39-.65,5.42.19,11.02.29,16.53.02,1.13.08,2.45-.44,3.36-13.03,22.55-26.14,45.06-39.23,67.58-.89,1.53-1.46,3.42-2.72,4.53-3.81,3.35-4.52,7.56-4.52,12.31.04,225.19.03,450.37.03,675.56,0,2.11,0,4.21,0,6.32,0,3.62,1.27,6.67,3.9,9.22.7.68,1.12,1.75,1.43,2.72,1.21,3.73,1.68,7.86,3.57,11.19,11.48,20.24,23.44,40.22,34.9,60.48,4.36,7.72,10.37,11.08,19.17,11.06,66.19-.13,132.38-.08,198.58-.08,55.22,0,110.43-.06,165.65.07,8.68.02,14.6-3.35,18.9-10.94,11.53-20.35,23.52-40.43,35.07-60.77,1.84-3.24,2.34-7.24,3.45-10.89.21-.7.14-1.73.6-2.09,4.66-3.59,4.78-8.59,4.78-13.83-.04-225.63-.03-451.26-.03-676.89,0-1.33.34-2.78-.08-3.97ZM416.67,234.09c115.29,0,230.57,0,345.86,0,5.91,0,5.94.03,5.93,5.93q0,6.3-6.37,6.3c-57.75,0-115.51,0-173.26,0-58.2,0-116.39,0-174.59,0-4.66,0-4.77-.11-4.77-4.91q0-7.32,7.21-7.32ZM372.37,322.68c10.46-18.02,20.98-36.01,31.35-54.08,1.22-2.12,2.56-2.83,4.96-2.83,120.18.06,240.36.05,360.55.02,2.16,0,3.6.39,4.81,2.51,10.53,18.36,21.21,36.64,31.84,54.95.38.66.71,1.35,1.33,2.53h-436.43c.62-1.21,1.05-2.18,1.58-3.1ZM805.73,1037.48c-10.51,18.12-21.07,36.22-31.51,54.38-1.2,2.09-2.54,2.86-4.96,2.86-120.19-.06-240.38-.05-360.57-.04-1.8,0-3.32.03-4.46-1.95-10.88-18.93-21.88-37.79-32.84-56.68-.16-.28-.24-.61-.53-1.39h436.24c-.55,1.13-.9,2.02-1.38,2.84ZM814.43,1012.03h-450.85V345.42h450.85v666.6Z"/>
      <rect x="547.81" y="214.8" width="86.96" height="6.9"/>
      <g>
        <path d="M833.88,334.67c-1.03-2.94-2.36-5.79-3.67-8.62-.36-.77-1.18-1.32-1.61-2.07-13.7-23.57-27.39-47.15-41.02-70.77-.53-.92-.56-2.23-.53-3.35.11-5.52.98-11.11.34-16.53-1.32-11.25-10.44-18.52-22.35-18.53h-144.66c-.61,1.26-1.88,1.69-4.25,1.7-18.51.03-37.01.02-55.52,0-2.45,0-3.74-.41-4.37-1.69h-138.56c-1.78,0-3.56,0-5.34.01-11.43.04-20.46,7.4-21.79,18.39-.65,5.42.19,11.02.29,16.53.02,1.13.08,2.45-.44,3.36-13.03,22.55-26.14,45.06-39.23,67.58-.89,1.53-1.46,3.42-2.72,4.53-3.81,3.35-4.52,7.56-4.52,12.31.04,225.19.03,450.37.03,675.56,0,2.11,0,4.21,0,6.32,0,3.62,1.27,6.67,3.9,9.22.7.68,1.12,1.75,1.43,2.72,1.21,3.73,1.68,7.86,3.57,11.19,11.48,20.24,23.44,40.22,34.9,60.48,4.36,7.72,10.37,11.08,19.17,11.06,66.19-.13,132.38-.08,198.58-.08,55.22,0,110.43-.06,165.65.07,8.68.02,14.6-3.35,18.9-10.94,11.53-20.35,23.52-40.43,35.07-60.77,1.84-3.24,2.34-7.24,3.45-10.89.21-.7.14-1.73.6-2.09,4.66-3.59,4.78-8.59,4.78-13.83-.04-225.63-.03-451.26-.03-676.89,0-1.33.34-2.78-.08-3.97ZM416.67,234.09c115.29,0,230.57,0,345.86,0,5.91,0,5.94.03,5.93,5.93q0,6.3-6.37,6.3c-57.75,0-115.51,0-173.26,0-58.2,0-116.39,0-174.59,0-4.66,0-4.77-.11-4.77-4.91q0-7.32,7.21-7.32ZM372.37,322.68c10.46-18.02,20.98-36.01,31.35-54.08,1.22-2.12,2.56-2.83,4.96-2.83,120.18.06,240.36.05,360.55.02,2.16,0,3.6.39,4.81,2.51,10.53,18.36,21.21,36.64,31.84,54.95.38.66.71,1.35,1.33,2.53h-436.43c.62-1.21,1.05-2.18,1.58-3.1ZM805.73,1037.48c-10.51,18.12-21.07,36.22-31.51,54.38-1.2,2.09-2.54,2.86-4.96,2.86-120.19-.06-240.38-.05-360.57-.04-1.8,0-3.32.03-4.46-1.95-10.88-18.93-21.88-37.79-32.84-56.68-.16-.28-.24-.61-.53-1.39h436.24c-.55,1.13-.9,2.02-1.38,2.84ZM814.43,1012.03h-450.85V345.42h450.85v666.6Z"/>
        <rect x="547.81" y="214.8" width="86.96" height="6.9"/>
      </g>
      <text class="cls-5" transform="translate(585.32 970.96) rotate(-90)"><tspan x="0" y="0">SHAP</tspan></text>
      <text class="cls-4" transform="translate(715.4 834.17) rotate(-90)"><tspan x="0" y="0">zero</tspan></text>
    </g>
  </g>
</svg>